<?xml version="1.0" encoding="UTF-8" standalone="no"?>
<!-- Generator: Adobe Illustrator 15.0.0, SVG Export Plug-In . SVG Version: 6.00 Build 0)  -->

<svg
   xmlns:dc="http://purl.org/dc/elements/1.1/"
   xmlns:cc="http://creativecommons.org/ns#"
   xmlns:rdf="http://www.w3.org/1999/02/22-rdf-syntax-ns#"
   xmlns:svg="http://www.w3.org/2000/svg"
   xmlns="http://www.w3.org/2000/svg"
   xmlns:sodipodi="http://sodipodi.sourceforge.net/DTD/sodipodi-0.dtd"
   xmlns:inkscape="http://www.inkscape.org/namespaces/inkscape"
   version="1.1"
   id="图层_1"
   x="0px"
   y="0px"
   width="612px"
   height="792px"
   viewBox="0 0 612 792"
   enable-background="new 0 0 612 792"
   xml:space="preserve"
   inkscape:version="0.91 r13725"
   sodipodi:docname="trap.svg"><metadata
     id="metadata4305"><rdf:RDF><cc:Work
         rdf:about=""><dc:format>image/svg+xml</dc:format><dc:type
           rdf:resource="http://purl.org/dc/dcmitype/StillImage" /></cc:Work></rdf:RDF></metadata><defs
     id="defs4303" /><sodipodi:namedview
     pagecolor="#ffffff"
     bordercolor="#666666"
     borderopacity="1"
     objecttolerance="10"
     gridtolerance="10"
     guidetolerance="10"
     inkscape:pageopacity="0"
     inkscape:pageshadow="2"
     inkscape:window-width="1280"
     inkscape:window-height="736"
     id="namedview4301"
     showgrid="false"
     inkscape:zoom="0.63762626"
     inkscape:cx="306"
     inkscape:cy="396"
     inkscape:window-x="0"
     inkscape:window-y="27"
     inkscape:window-maximized="1"
     inkscape:current-layer="图层_1" /><g
     id="g4289"
     transform="matrix(4.3673638,0,0,4.3673638,-647.48781,-293.58387)"><path
       d="m 166.583,171.198 c 2.844,-0.554 6.502,-4.788 7.737,-1.407 0.941,2.576 -6.498,6.667 -8.91,6.331 -2.125,-0.296 -4.014,-4.319 -5.158,-6.331 -2.995,-5.264 -5.226,-9.117 -8.206,-14.302 -0.926,-1.611 -3.843,-5.354 -3.517,-7.737 0.397,-2.907 7.961,-5.732 11.02,-7.503 8.307,-4.809 15.345,-8.836 23.212,-13.364 3.904,-2.248 7.454,-5 11.489,-6.8 3.838,-1.712 5.671,4.404 7.034,6.8 2.925,5.14 5.12,8.578 8.206,13.833 1.119,1.904 3.655,5.157 3.517,7.269 -0.128,1.971 -2.808,3.377 -4.689,4.455 -1.07,0.613 -5.391,3.279 -5.861,0 -0.482,-3.363 4.876,-2.94 5.393,-5.158 0.335,-1.438 -1.936,-4.564 -2.813,-6.096 -2.204,-3.845 -4.059,-6.752 -6.565,-11.02 -0.873,-1.485 -2.185,-4.899 -3.517,-5.158 -1.114,-0.216 -4.073,1.681 -5.627,2.579 -10.472,6.053 -19.845,11.625 -30.949,18.054 -1.763,1.02 -4.497,2.236 -4.689,3.283 -0.275,1.494 2.226,4.441 3.048,5.861 3.396,5.87 5.912,11.132 9.845,16.411 z"
       id="path4291"
       inkscape:connector-curvature="0"
       style="clip-rule:evenodd;fill:#cccccc;fill-rule:evenodd" /><path
       d="m 199.642,140.014 c 0.378,0.937 0.378,3.284 0,4.22 -2.267,0 -4.533,0 -6.8,0 -0.547,10.004 -0.078,21.023 -0.234,31.418 -1.439,-0.124 -3.394,0.268 -4.455,-0.234 0,-10.395 0,-20.79 0,-31.184 -2.358,-0.143 -5.296,0.294 -7.269,-0.234 -0.274,-0.832 -0.618,-3.523 0.234,-3.986 6.175,0 12.35,0 18.524,0 z"
       id="path4293"
       inkscape:connector-curvature="0"
       style="clip-rule:evenodd;fill:#cccccc;fill-rule:evenodd" /><path
       d="m 233.405,140.249 c 0.546,11.255 0.079,23.524 0.234,35.17 -1.061,0.502 -3.016,0.11 -4.455,0.234 0,-5.002 0,-10.004 0,-15.006 -0.555,-0.54 -2.104,-0.084 -3.048,-0.234 -2.994,4.743 -5.108,10.366 -7.972,15.24 -1.364,-0.121 -3.233,0.263 -4.22,-0.234 2.059,-5.522 4.836,-10.326 7.268,-15.475 -3.777,-1.825 -5.915,-5.674 -5.861,-10.316 0.103,-9.018 8.075,-10.9 18.054,-9.379 z m -12.661,5.861 c -1.444,2.516 -0.896,7.886 1.172,9.379 1.889,1.363 4.125,0.399 7.269,0.703 0,-3.986 0,-7.972 0,-11.958 -3.595,0.34 -6.78,-1.02 -8.441,1.876 z"
       id="path4295"
       inkscape:connector-curvature="0"
       style="clip-rule:evenodd;fill:#cccccc;fill-rule:evenodd" /><path
       d="m 254.976,140.014 c 3.54,11.388 6.33,23.524 9.378,35.404 -1.061,0.502 -3.016,0.11 -4.455,0.234 -1.078,-3.377 -1.792,-7.118 -2.814,-10.551 -2.813,0 -5.627,0 -8.44,0 -1.432,3.101 -1.696,7.37 -3.048,10.551 -1.364,-0.121 -3.233,0.263 -4.22,-0.234 2.798,-11.661 5.92,-22.998 8.675,-34.701 0.131,-0.337 0.366,-0.572 0.703,-0.703 1.407,0 2.814,0 4.221,0 z m -5.393,20.867 c 2.11,0 4.221,0 6.331,0 -0.93,-4.697 -1.918,-9.336 -3.282,-13.599 -0.805,4.745 -2.186,8.913 -3.049,13.599 z"
       id="path4297"
       inkscape:connector-curvature="0"
       style="clip-rule:evenodd;fill:#cccccc;fill-rule:evenodd" /><path
       d="m 273.029,140.014 c 6.226,0.441 10.118,-1.079 14.068,1.641 5.725,3.941 4.074,15.17 -1.407,17.819 -2.322,1.123 -5.074,0.829 -8.675,0.938 -0.147,5.011 0.3,10.616 -0.234,15.24 -1.407,0 -2.813,0 -4.221,0 -0.388,-11.101 -0.392,-23.835 0,-34.936 -0.01,-0.4 0.175,-0.606 0.469,-0.702 z m 10.785,15.475 c 2.707,-1.736 3.492,-8.954 -0.234,-10.786 -1.62,-0.796 -4.983,-0.347 -6.565,-0.469 0,3.986 0,7.972 0,11.958 2.965,-0.262 4.942,0.488 6.799,-0.703 z"
       id="path4299"
       inkscape:connector-curvature="0"
       style="clip-rule:evenodd;fill:#cccccc;fill-rule:evenodd" /></g></svg>